<svg width="30" height="30" viewBox="0 0 30 30" fill="none" xmlns="http://www.w3.org/2000/svg">
<path d="M5 24C4.44772 24 4 24.4477 4 25C4 25.5523 4.44772 26 5 26V24ZM22.5 26C23.0523 26 23.5 25.5523 23.5 25C23.5 24.4477 23.0523 24 22.5 24V26ZM22.5 11.25V10.25C21.9477 10.25 21.5 10.6977 21.5 11.25H22.5ZM22.5 17.5H21.5C21.5 18.0523 21.9477 18.5 22.5 18.5V17.5ZM19.6444 4.19721C19.8914 3.70324 19.6912 3.10256 19.1972 2.85557C18.7032 2.60858 18.1026 2.80881 17.8556 3.30279L19.6444 4.19721ZM16.6056 5.80279C16.3586 6.29676 16.5588 6.89744 17.0528 7.14443C17.5468 7.39142 18.1474 7.19119 18.3944 6.69721L16.6056 5.80279ZM15.8944 4.19721C16.1414 3.70324 15.9412 3.10256 15.4472 2.85557C14.9532 2.60858 14.3526 2.80881 14.1056 3.30279L15.8944 4.19721ZM12.8556 5.80279C12.6086 6.29676 12.8088 6.89744 13.3028 7.14443C13.7968 7.39142 14.3974 7.19119 14.6444 6.69721L12.8556 5.80279ZM12.1444 4.19721C12.3914 3.70324 12.1912 3.10256 11.6972 2.85557C11.2032 2.60858 10.6026 2.80881 10.3556 3.30279L12.1444 4.19721ZM9.10557 5.80279C8.85858 6.29676 9.05881 6.89744 9.55279 7.14443C10.0468 7.39142 10.6474 7.19119 10.8944 6.69721L9.10557 5.80279ZM5 26H22.5V24H5V26ZM22.5 12.25H24.375V10.25H22.5V12.25ZM24.375 16.5H22.5V18.5H24.375V16.5ZM23.5 17.5V11.25H21.5V17.5H23.5ZM26.5 14.375C26.5 15.5486 25.5486 16.5 24.375 16.5V18.5C26.6532 18.5 28.5 16.6532 28.5 14.375H26.5ZM24.375 12.25C25.5486 12.25 26.5 13.2014 26.5 14.375H28.5C28.5 12.0968 26.6532 10.25 24.375 10.25V12.25ZM21.5 11.1539V16.25H23.5V11.1539H21.5ZM6 16.25V11.1539H4V16.25H6ZM6.15356 11H21.3459V9H6.15356V11ZM6 11.1539C6 11.0686 6.06894 11 6.15356 11V9C4.96368 9 4 9.96468 4 11.1539H6ZM13.75 24C9.46979 24 6 20.5302 6 16.25H4C4 21.6348 8.36523 26 13.75 26V24ZM21.5 16.25C21.5 20.5302 18.0302 24 13.75 24V26C19.1348 26 23.5 21.6348 23.5 16.25H21.5ZM23.5 11.1539C23.5 9.96404 22.5351 9 21.3459 9V11C21.4311 11 21.5 11.0692 21.5 11.1539H23.5ZM17.8556 3.30279L16.6056 5.80279L18.3944 6.69721L19.6444 4.19721L17.8556 3.30279ZM14.1056 3.30279L12.8556 5.80279L14.6444 6.69721L15.8944 4.19721L14.1056 3.30279ZM10.3556 3.30279L9.10557 5.80279L10.8944 6.69721L12.1444 4.19721L10.3556 3.30279Z" fill="white"/>
</svg>
