<svg width="30" height="30" viewBox="0 0 30 30" fill="none" xmlns="http://www.w3.org/2000/svg">
<path d="M8.69995 18.75H21.9857M8.48571 16.25H22.2M22.6568 10.9209L21.6565 22.5917C21.5458 23.8825 21.4905 24.5278 21.2036 25.0161C20.951 25.4462 20.576 25.7909 20.1259 26.0059C19.6148 26.25 18.9671 26.25 17.6715 26.25H13.0151C11.7196 26.25 11.0714 26.25 10.5603 26.0059C10.1102 25.7909 9.73498 25.4462 9.48236 25.0161C9.1955 24.5278 9.14017 23.8825 9.02953 22.5917L8.02917 10.9209C7.9646 10.1675 7.93235 9.79077 8.05915 9.50012C8.17056 9.24476 8.36409 9.03397 8.60901 8.90116C8.88777 8.75 9.26587 8.75 10.022 8.75H20.6644C21.4205 8.75 21.7988 8.75 22.0776 8.90116C22.3225 9.03397 22.5155 9.24476 22.6269 9.50012C22.7538 9.79077 22.7214 10.1675 22.6568 10.9209ZM21.9021 8.75H8.78418C7.65716 8.75 7.09368 8.74996 6.76635 8.5141C6.47775 8.30613 6.29157 7.98509 6.25419 7.63132C6.21181 7.23011 6.49162 6.74088 7.05078 5.76236C7.4685 5.03135 7.67736 4.66585 7.97048 4.39957C8.23253 4.16151 8.54208 3.9818 8.87878 3.87239C9.2554 3.75 9.67624 3.75 10.5182 3.75H20.1685C21.0104 3.75 21.4314 3.75 21.808 3.87239C22.1447 3.9818 22.454 4.16151 22.7161 4.39957C23.0092 4.66585 23.218 5.03135 23.6358 5.76236C24.1949 6.74088 24.4746 7.23011 24.4322 7.63132C24.3948 7.98509 24.2089 8.30613 23.9203 8.5141C23.593 8.74996 23.0291 8.75 21.9021 8.75Z" stroke="white" stroke-width="2" stroke-linecap="round" stroke-linejoin="round"/>
</svg>
