<svg width="30" height="30" viewBox="0 0 30 30" fill="none" xmlns="http://www.w3.org/2000/svg">
<path d="M23.5624 6.32476L24.5602 6.25825C24.5269 5.75837 24.1288 5.3603 23.6289 5.32697L23.5624 6.32476ZM8.53638 21.3507L7.67888 21.8652C7.76333 22.006 7.88113 22.1238 8.02188 22.2082L8.53638 21.3507ZM5.54289 22.9294C5.15237 23.3199 5.15237 23.953 5.54289 24.3436C5.93342 24.7341 6.56658 24.7341 6.95711 24.3436L5.54289 22.9294ZM14.0282 17.2725C14.4187 16.882 14.4187 16.2488 14.0282 15.8583C13.6377 15.4678 13.0045 15.4678 12.614 15.8583L14.0282 17.2725ZM22.5646 6.39127C22.9969 12.8758 21.4632 17.6162 18.9883 20.0912C17.7664 21.3131 16.305 21.9996 14.6718 22.1068C13.0272 22.2149 11.1285 21.7398 9.05087 20.4933L8.02188 22.2082C10.3637 23.6133 12.6634 24.2431 14.8029 24.1025C16.9539 23.9612 18.8622 23.0457 20.4025 21.5054C23.4518 18.4561 25.0117 13.0319 24.5602 6.25825L22.5646 6.39127ZM9.39387 20.8363C8.14731 18.7587 7.67223 16.8599 7.78027 15.2153C7.88755 13.5821 8.57403 12.1207 9.79591 10.8988C12.2709 8.42388 17.0113 6.89022 23.4959 7.32254L23.6289 5.32697C16.8553 4.87538 11.431 6.4353 8.3817 9.48461C6.84143 11.0249 5.92587 12.9333 5.78457 15.0842C5.64401 17.2237 6.27378 19.5234 7.67888 21.8652L9.39387 20.8363ZM6.95711 24.3436L14.0282 17.2725L12.614 15.8583L5.54289 22.9294L6.95711 24.3436Z" fill="white"/>
</svg>
