<svg width="30" height="30" viewBox="0 0 30 30" fill="none" xmlns="http://www.w3.org/2000/svg">
<path d="M3.75 7.75C3.19772 7.75 2.75 8.19772 2.75 8.75C2.75 9.30228 3.19772 9.75 3.75 9.75V7.75ZM11.8323 9.72107L10.9748 10.2356L11.8323 9.72107ZM18.1671 20.2791L17.3096 20.7935L17.3096 20.7935L18.1671 20.2791ZM26.2504 22.25C26.8027 22.25 27.2504 21.8023 27.2504 21.25C27.2504 20.6977 26.8027 20.25 26.2504 20.25V22.25ZM18.6327 20.9387L17.9723 21.6896L18.6327 20.9387ZM19.0771 21.1908L19.3814 20.2382L19.0771 21.1908ZM10.9221 8.80925L11.2263 7.85664L10.9221 8.80925ZM11.3672 9.06128L10.7069 9.81225L11.3672 9.06128ZM18.75 7.75C18.1977 7.75 17.75 8.19772 17.75 8.75C17.75 9.30228 18.1977 9.75 18.75 9.75V7.75ZM26.25 9.75C26.8023 9.75 27.25 9.30229 27.25 8.75C27.25 8.19772 26.8023 7.75 26.25 7.75V9.75ZM3.75 9.75H10.1176V7.75H3.75V9.75ZM10.9748 10.2356L17.3096 20.7935L19.0246 19.7646L12.6898 9.20657L10.9748 10.2356ZM19.8828 22.25H26.2504V20.25H19.8828V22.25ZM17.3096 20.7935C17.4894 21.0932 17.6818 21.4342 17.9723 21.6896L19.293 20.1877C19.3044 20.1977 19.2946 20.1939 19.2499 20.1287C19.199 20.0542 19.1362 19.9506 19.0246 19.7646L17.3096 20.7935ZM19.8828 20.25C19.665 20.25 19.5438 20.2496 19.453 20.2443C19.3734 20.2397 19.3657 20.2332 19.3814 20.2382L18.7729 22.1434C19.1421 22.2613 19.5363 22.25 19.8828 22.25V20.25ZM17.9723 21.6896C18.2041 21.8934 18.4759 22.0485 18.7729 22.1434L19.3814 20.2382C19.3501 20.2282 19.3201 20.2115 19.293 20.1877L17.9723 21.6896ZM10.1176 9.75C10.3354 9.75 10.4563 9.75039 10.5466 9.75569C10.6256 9.76032 10.6331 9.76672 10.6179 9.76185L11.2263 7.85664C10.8572 7.73877 10.4646 7.75 10.1176 7.75V9.75ZM12.6898 9.20657C12.5111 8.9088 12.3184 8.56611 12.0275 8.31031L10.7069 9.81225C10.6948 9.80168 10.7043 9.805 10.7491 9.87054C10.8002 9.94537 10.8628 10.0489 10.9748 10.2356L12.6898 9.20657ZM10.6179 9.76185C10.6506 9.7723 10.6809 9.78943 10.7069 9.81225L12.0275 8.31031C11.7946 8.10553 11.5219 7.95104 11.2263 7.85664L10.6179 9.76185ZM18.75 9.75L26.25 9.75V7.75L18.75 7.75V9.75Z" fill="white"/>
</svg>
